<svg xmlns="http://www.w3.org/2000/svg" width="1394" height="497" viewBox="0 0 1394 497" fill="none"><g opacity="0.15"><g opacity="0.53"><path d="M-8.27455 -23.902L-8.39453 -23.842C26.8781 36.2653 81.4067 90.9139 145.173 130.026C204.801 166.618 267.308 186.414 322.526 186.414C326.335 186.414 330.115 186.324 333.864 186.144C347.091 185.484 360.138 183.774 373.755 180.955C385.873 178.436 398.17 175.076 411.337 170.667C435.782 162.509 459.567 151.921 482.573 141.693C531.342 120.008 581.582 97.6625 640.519 97.6625C648.468 97.6625 656.566 98.0824 664.844 98.9222C742.528 107.051 829 158.76 885.148 230.625C898.345 247.481 910.163 265.657 921.591 283.234C940.307 311.998 959.682 341.751 985.327 366.136C996.245 376.514 1008.06 385.842 1021.5 394.63C1033.41 402.429 1046.27 409.567 1060.82 416.526C1087.76 429.393 1115.98 439.261 1143.24 448.799C1145.46 449.579 1147.68 450.359 1149.87 451.108C1230.92 479.542 1312.71 512.625 1392.97 549.428L1393.03 549.308C1312.77 512.505 1230.98 479.422 1149.93 450.988C1147.71 450.209 1145.52 449.429 1143.3 448.679C1088.06 429.333 1030.92 409.327 985.447 366.046C959.833 341.661 940.457 311.908 921.74 283.144C910.313 265.567 898.465 247.391 885.298 230.535C857.704 195.202 822.371 164.159 783.169 140.733C743.968 117.308 703.056 102.791 664.874 98.8023C648.108 97.0326 631.761 97.0626 614.905 98.8622C599.878 100.482 584.761 103.451 568.745 108.01C538.931 116.469 510.287 129.216 482.573 141.543C436.532 161.999 388.932 183.175 333.894 185.964C330.204 186.144 326.455 186.234 322.676 186.234C205.341 186.264 62.0907 95.9828 -8.27455 -23.902Z" fill="white"></path></g><g opacity="0.5504"><path d="M-15.4113 -21.5021L-15.5313 -21.4121C-2.57397 -0.386536 12.8428 19.9492 30.2092 39.0552C13.1427 20.1592 -2.24403 -0.146606 -15.4113 -21.5021ZM623.785 91.9941C613.527 91.9941 603.239 92.684 592.801 94.0637C573.185 96.6731 552.73 101.802 530.294 109.78C509.659 117.129 489.263 126.157 471.267 134.105L469.407 134.915C423.907 155.071 376.847 175.887 322.588 178.856C302.282 179.966 281.197 178.376 259.811 174.327C281.496 178.496 302.612 180.116 322.588 179.006C346.943 177.686 371.958 172.617 399.072 163.589C423.247 155.521 446.732 145.113 469.467 135.065L471.327 134.255C509.299 117.459 548.561 100.062 592.831 94.2137C611.397 91.7542 629.364 91.4842 647.75 93.3738C723.124 101.142 808.306 151.532 864.724 221.717C878.701 239.083 891.269 257.949 903.476 276.185C923.182 305.699 943.578 336.233 970.182 360.948C975.791 366.137 981.73 371.146 987.848 375.795C1021.35 401.139 1058.63 415.416 1093.94 427.054C1103.35 430.173 1112.98 433.203 1122.31 436.112C1128.82 438.152 1135.57 440.281 1142.14 442.381C1167.51 450.629 1190.25 458.877 1211.6 467.635C1245.37 481.402 1277.56 496.759 1301.82 508.577C1325.25 520.064 1348.04 531.702 1372.16 544.029C1377.14 546.579 1382.12 549.128 1387.15 551.678L1387.21 551.558C1382.21 549.008 1377.2 546.459 1372.22 543.909C1348.1 531.582 1325.31 519.944 1301.88 508.457C1277.62 496.609 1245.43 481.283 1211.66 467.515C1190.31 458.757 1167.57 450.509 1142.17 442.261C1135.6 440.131 1128.85 438.032 1122.34 435.992C1113.01 433.083 1103.38 430.053 1093.97 426.934C1058.69 415.296 1021.41 401.019 987.908 375.675C981.79 371.026 975.851 366.017 970.242 360.828C943.668 336.113 923.272 305.579 903.566 276.066C891.389 257.829 878.791 238.963 864.814 221.597C837.1 187.134 802.187 156.871 763.855 134.105C725.253 111.19 685.092 97.0331 647.72 93.1638C639.711 92.414 631.763 91.9941 623.785 91.9941Z" fill="white"></path></g><g opacity="0.5709"><path d="M-22.5832 -19.1041L-22.7031 -19.0141C13.2893 36.5342 67.0081 86.6237 128.585 121.986C158.879 139.383 189.832 152.58 220.606 161.158C252.429 170.036 282.963 173.665 311.337 171.986C335.362 170.576 360.077 165.537 386.861 156.599C410.736 148.621 433.981 138.393 456.446 128.495L457.436 128.045C494.868 111.549 533.56 94.4821 576.751 88.7233C594.957 86.2938 612.594 86.0239 630.68 87.8535C705.004 95.3819 786.887 143.282 844.325 212.867C859.112 230.773 872.489 250.329 885.417 269.285C906.082 299.519 927.468 330.803 955.002 355.847C960.911 361.186 967.119 366.285 973.508 370.964C1009.44 397.089 1049.54 409.836 1084.27 419.704C1090.93 421.594 1097.74 423.483 1104.34 425.313C1114.21 428.042 1124.41 430.832 1134.39 433.831C1160.7 441.659 1184.21 450.178 1206.32 459.836C1239.58 474.262 1270.72 491.119 1296.78 505.726C1310.79 513.554 1324.94 521.773 1338.65 529.691C1352.48 537.699 1366.79 545.977 1381.33 554.136L1381.42 553.986C1366.85 545.827 1352.57 537.549 1338.74 529.541C1325.03 521.593 1310.85 513.404 1296.87 505.576C1270.81 490.969 1239.67 474.113 1206.41 459.686C1184.3 450.028 1160.79 441.509 1134.48 433.681C1124.5 430.712 1114.3 427.892 1104.43 425.163C1097.83 423.333 1091.02 421.474 1084.36 419.554C1049.63 409.656 1009.56 396.939 973.658 370.814C967.269 366.135 961.061 361.066 955.152 355.727C927.618 330.713 906.262 299.429 885.596 269.195C872.669 250.269 859.262 230.684 844.475 212.777C816.701 179.154 782.208 149.701 744.716 127.625C706.684 105.22 667.272 91.4227 630.71 87.7335C612.594 85.9039 594.957 86.1738 576.721 88.6033C533.5 94.3621 494.778 111.429 457.346 127.925L456.356 128.375C411.366 148.201 364.846 168.717 311.307 171.866C195.951 178.734 52.4011 96.6416 -22.5832 -19.1041Z" fill="white"></path></g><g opacity="0.5913"><path d="M-29.7192 -16.7041L-29.8691 -16.6141C6.48323 36.6547 59.812 84.4647 120.279 117.968C150.153 134.524 180.627 147.002 210.83 155.04C242.114 163.378 272.138 166.707 300.062 164.878C323.757 163.378 348.172 158.369 374.656 149.521C398.261 141.633 421.236 131.555 443.432 121.807L443.522 121.777C480.414 105.58 518.536 88.8438 560.677 83.205C578.523 80.8055 595.83 80.5055 613.616 82.2751C685.841 89.4436 766.434 136.054 823.932 203.93C839.559 222.376 853.746 242.682 867.483 262.357C889.078 293.311 911.423 325.284 939.887 350.629C946.216 356.238 952.725 361.397 959.233 365.986C975.88 377.683 994.416 387.221 1015.98 395.17C1034.34 401.948 1052.72 406.867 1074.71 412.206C1079.57 413.406 1084.58 414.575 1089.41 415.745C1101.64 418.655 1114.3 421.654 1126.72 425.073C1154.13 432.602 1178.46 441.36 1201.07 451.828C1234.28 467.034 1264.27 485.241 1291.74 502.667C1302.63 509.566 1313.67 516.764 1324.32 523.693C1340.75 534.43 1357.79 545.528 1375.58 556.386L1375.67 556.236C1357.88 545.378 1340.87 534.28 1324.44 523.543C1313.79 516.584 1302.78 509.416 1291.86 502.517C1264.39 485.121 1234.37 466.885 1201.16 451.678C1178.55 441.21 1154.22 432.452 1126.78 424.923C1114.36 421.504 1101.7 418.505 1089.47 415.595C1084.64 414.456 1079.63 413.256 1074.77 412.056C1034.82 402.368 995.916 391.54 959.383 365.866C952.875 361.277 946.366 356.118 940.067 350.509C911.603 325.194 889.288 293.191 867.693 262.267C853.956 242.622 839.768 222.286 824.142 203.84C796.368 171.057 762.295 142.413 725.612 120.967C688.18 99.1016 649.488 85.6644 613.706 82.0952C595.92 80.3256 578.583 80.6255 560.707 83.025C518.566 88.6638 480.414 105.4 443.522 121.597L443.432 121.627C398.951 141.153 352.941 161.339 300.122 164.668C295.263 164.968 290.344 165.148 285.365 165.148C175.468 165.208 42.5657 89.2337 -29.7192 -16.7041Z" fill="white"></path></g><g opacity="0.6117"><path d="M-36.8871 -14.2737L-37.0371 -14.1538C-0.294807 36.8355 52.6141 82.336 111.972 113.979C141.425 129.666 171.389 141.454 201.053 148.982C231.797 156.78 261.31 159.78 288.785 157.86C340.944 154.351 386.024 134.645 429.605 115.599L430.235 115.329C466.257 99.5824 503.54 83.2958 544.571 77.7769C562.057 75.4074 579.064 75.1075 596.52 76.8171C666.735 83.6557 746.039 128.976 803.507 195.142C820.033 214.158 835.03 235.244 849.577 255.64C872.102 287.253 895.378 319.946 924.741 345.561C931.37 351.32 938.179 356.569 944.927 361.158C962.353 373.005 981.759 382.333 1004.25 389.742C1024.68 396.46 1045.5 400.899 1065.08 404.858C1068.5 405.548 1071.95 406.238 1075.4 406.958C1089.68 409.837 1104.43 412.807 1119.01 416.496C1147.23 423.634 1172.34 432.633 1195.79 444C1229.96 460.557 1260.94 481.492 1286.71 499.759C1295.97 506.327 1305.33 513.166 1314.39 519.764C1332 532.602 1350.2 545.889 1369.76 558.786L1369.88 558.636C1350.35 545.739 1332.12 532.452 1314.51 519.614C1305.45 513.016 1296.09 506.177 1286.83 499.609C1261.03 481.312 1230.05 460.407 1195.88 443.82C1172.4 432.453 1147.29 423.455 1119.04 416.316C1104.46 412.627 1089.71 409.657 1075.43 406.778C1071.98 406.088 1068.53 405.398 1065.11 404.678C1021.62 395.86 982.539 386.502 945.047 361.008C938.299 356.419 931.52 351.17 924.891 345.411C895.557 319.826 872.282 287.133 849.757 255.52C835.24 235.124 820.213 214.038 803.687 195.022C746.189 128.856 666.825 83.4758 596.55 76.6372C579.064 74.9276 562.057 75.2575 544.541 77.597C503.48 83.1158 466.197 99.4324 430.145 115.179L429.515 115.449C385.934 134.495 340.884 154.171 288.755 157.71C283.566 158.07 278.257 158.25 272.948 158.25C166.08 158.19 35.6377 86.3552 -36.8871 -14.2737Z" fill="white"></path></g><g opacity="0.6322"><path d="M-44.0251 -11.8731L-44.2051 -11.7531C-7.07286 36.9567 45.4461 80.1776 103.664 109.961C132.668 124.808 162.152 135.876 191.276 142.864C221.479 150.123 250.513 152.792 277.507 150.753C300.333 149.103 323.818 144.214 349.312 135.756C372.708 128.018 395.533 118.09 415.689 109.302L417.128 108.672C452.221 93.4048 488.513 77.5981 528.495 72.1993C545.621 69.8898 562.298 69.5298 579.454 71.1795C647.75 77.6881 725.794 121.749 783.142 186.145C800.568 205.731 816.435 227.627 831.791 248.772C855.186 281.046 879.391 314.399 909.625 340.283C916.554 346.192 923.632 351.531 930.621 356.15C948.827 368.147 969.073 377.295 992.528 384.134C1013.04 390.133 1033.17 393.642 1055.45 397.331C1057.61 397.691 1059.77 398.051 1061.93 398.411C1078.04 401.08 1094.72 403.84 1111.27 407.709C1140.55 414.518 1166.46 423.756 1190.52 435.963C1225.22 453.569 1254.85 475.555 1281.67 496.67C1289.92 503.179 1298.22 509.898 1306.26 516.406C1324.44 531.133 1343.24 546.37 1363.94 561.007L1364.06 560.827C1343.36 546.19 1324.56 530.953 1306.38 516.226C1298.34 509.718 1290.04 502.999 1281.79 496.49C1254.94 475.375 1225.31 453.389 1190.61 435.753C1166.55 423.546 1140.61 414.308 1111.33 407.499C1094.78 403.66 1078.1 400.87 1061.96 398.201C1059.8 397.841 1057.61 397.481 1055.48 397.121C1016.52 390.673 972.402 383.384 930.741 355.97C923.752 351.381 916.674 346.042 909.745 340.133C879.541 314.279 855.336 280.926 831.971 248.682C816.615 227.507 800.748 205.641 783.321 186.025C755.637 154.922 722.434 127.838 687.312 107.712C651.079 86.9562 613.797 74.2689 579.514 70.9695C562.328 69.3199 545.651 69.6498 528.495 71.9893C488.513 77.4182 452.191 93.1949 417.068 108.492L415.629 109.122C373.007 127.658 328.947 146.824 277.507 150.543C169.11 158.671 33.8986 90.3455 -44.0251 -11.8731Z" fill="white"></path></g><g opacity="0.6526"><path d="M-51.195 -9.47491L-51.375 -9.32495C-13.8829 37.0754 38.2462 78.0168 95.3842 105.941C123.968 119.918 152.972 130.296 181.526 136.774C211.22 143.493 239.714 145.833 266.228 143.703C317.008 139.804 362.058 120.308 401.77 103.121L403.99 102.162C438.152 87.3748 473.485 72.078 512.387 66.7691C528.943 64.5196 545.74 64.1597 562.356 65.7193C628.822 71.928 705.606 114.699 762.714 177.326C781.101 197.482 797.837 220.187 814.034 242.142C838.299 275.045 863.373 309.028 894.447 335.153C901.675 341.212 909.024 346.64 916.282 351.259C935.298 363.407 956.384 372.345 980.769 378.614C1003.02 384.343 1025.76 387.312 1045.8 389.921L1048.73 390.311C1066.58 392.681 1085.06 395.11 1103.53 399.069C1133.86 405.548 1160.58 415.026 1185.21 428.073C1220.66 446.819 1250.08 470.694 1276.6 493.73C1284.13 500.268 1291.68 507.017 1299 513.555C1317.45 530.052 1336.55 547.088 1358.12 563.375L1358.27 563.195C1336.7 546.908 1317.63 529.872 1299.15 513.375C1291.83 506.837 1284.28 500.088 1276.72 493.55C1250.2 470.544 1220.75 446.639 1185.3 427.863C1160.64 414.816 1133.92 405.338 1103.56 398.829C1085.09 394.87 1066.61 392.441 1048.73 390.071L1045.8 389.681C1005.21 384.403 959.203 378.404 916.372 351.049C909.114 346.43 901.795 341.002 894.567 334.973C863.493 308.878 838.449 274.865 814.184 241.992C797.987 220.037 781.251 197.332 762.864 177.146C735.27 146.852 702.517 120.578 668.144 101.082C632.512 80.8961 595.949 68.5687 562.386 65.4494C545.77 63.8897 528.913 64.2496 512.357 66.4991C473.425 71.808 438.092 87.1048 403.9 101.922L401.68 102.882C361.968 120.068 316.948 139.564 266.198 143.463C160.771 151.921 27.2685 87.6147 -51.195 -9.47491Z" fill="white"></path></g><g opacity="0.673"><path d="M-58.3337 -7.07471L-58.5137 -6.92474C-39.4677 15.2406 -17.0924 35.9662 7.98239 54.6523C11.1617 57.0218 14.3411 59.3314 17.5804 61.6109C-10.4038 41.785 -36.2284 18.6599 -58.3337 -7.07471ZM525.674 59.0014C515.836 59.0014 506.028 59.6613 496.31 61.011C458.458 66.1999 424.055 81.0168 390.792 95.3538L387.793 96.6435C349.011 113.35 305.04 132.276 254.951 136.385C247.992 136.985 240.884 137.285 233.745 137.285C196.013 137.285 155.821 129.127 116.38 114.31C134.886 121.298 153.422 126.787 171.778 130.686C200.932 136.865 228.916 138.875 254.981 136.625C276.906 134.826 299.461 130.057 323.936 122.018C345.412 114.97 365.597 106.451 387.883 96.8535L390.882 95.5638C424.115 81.2267 458.488 66.4099 496.34 61.2209C512.537 59.0014 529.033 58.6115 545.32 60.1112C611.036 66.08 684.671 106.571 742.349 168.389C761.724 189.144 779.361 212.689 796.397 235.484C821.472 268.987 847.416 303.6 879.33 329.965C886.858 336.143 894.477 341.662 902.005 346.311C946.156 373.695 991.806 378.135 1035.93 382.424L1036.2 382.454C1054.61 384.283 1075.52 386.353 1095.85 390.342C1127.23 396.491 1154.73 406.209 1179.96 420.096C1216.31 440.072 1246.69 466.976 1271.59 490.671C1278.58 497.33 1285.56 504.168 1292.34 510.827C1310.91 529.003 1330.08 547.809 1352.36 565.655L1352.51 565.475C1330.26 547.629 1311.06 528.853 1292.52 510.677C1285.74 504.048 1278.76 497.18 1271.77 490.521C1246.84 466.826 1216.49 439.892 1180.08 419.916C1154.82 406.029 1127.29 396.311 1095.88 390.132C1075.52 386.143 1054.64 384.073 1036.2 382.244L1035.93 382.214C991.806 377.925 946.216 373.486 902.095 346.131C894.597 341.482 886.978 335.963 879.45 329.785C847.566 303.45 821.652 268.807 796.577 235.334C779.511 212.569 761.874 188.994 742.498 168.239C715.024 138.785 682.721 113.26 649.098 94.424C614.095 74.8081 578.193 62.8706 545.35 59.8712C538.781 59.3014 532.212 59.0014 525.674 59.0014Z" fill="white"></path></g><g opacity="0.6935"><path d="M-65.5017 -4.67584L-65.6816 -4.49591C-46.4557 16.4697 -24.1104 35.9956 0.69445 53.5419C25.2293 70.8783 51.5038 85.7852 78.7981 97.8427C106.512 110.08 134.526 119.048 162.001 124.477C190.585 130.116 218.089 131.826 243.704 129.546C289.744 125.437 329.935 109.48 373.966 90.6442L377.715 89.0245C410.019 75.1674 443.462 60.8304 480.204 55.7615C496.041 53.572 512.207 53.182 528.194 54.6217C592.231 60.2905 664.635 99.5223 721.893 159.54C742.289 180.925 760.825 205.31 778.761 228.945C804.646 263.018 831.43 298.261 864.124 324.835C871.952 331.164 879.84 336.743 887.639 341.452C933.139 368.926 979.629 371.985 1024.56 374.925L1026.51 375.045C1047.33 376.454 1067.69 378.044 1088.06 381.703C1120.48 387.522 1148.79 397.48 1174.62 412.207C1211.84 433.382 1241.95 462.266 1266.49 487.731C1273.03 494.54 1279.6 501.528 1285.93 508.307C1304.46 528.132 1323.63 548.618 1346.51 567.994L1346.69 567.784C1323.84 548.438 1304.67 527.953 1286.14 508.127C1279.81 501.348 1273.24 494.33 1266.7 487.551C1242.16 462.086 1212.02 433.202 1174.77 411.997C1148.91 397.27 1120.57 387.282 1088.12 381.463C1067.72 377.804 1047.36 376.214 1026.54 374.805L1024.59 374.685C979.689 371.715 933.229 368.686 887.759 341.242C879.99 336.563 872.072 330.954 864.273 324.655C831.58 298.081 804.826 262.868 778.941 228.795C761.005 205.19 742.439 180.775 722.043 159.39C694.749 130.776 662.896 106.001 629.963 87.7947C613.076 78.4667 595.98 70.8783 579.183 65.2995C561.757 59.5107 544.601 55.8214 528.194 54.3817C512.177 52.942 496.011 53.332 480.144 55.5215C443.342 60.6205 409.899 74.9575 377.566 88.8145L373.816 90.4342C329.816 109.27 289.624 125.227 243.614 129.336C142.235 138.334 15.0914 83.2657 -65.5017 -4.67584Z" fill="white"></path></g><g opacity="0.7139"><path d="M-72.6377 -2.2453L-72.8477 -2.06537C-53.4417 17.7305 -31.1564 36.0567 -6.62154 52.4633C17.7334 68.7198 43.6779 82.6369 70.4623 93.8245C97.7566 105.222 125.261 113.47 152.225 118.389C180.269 123.488 207.264 124.868 232.428 122.469C277.929 118.149 317.161 102.673 360.052 84.4065L364.581 82.4869C395.984 69.0797 428.437 55.2227 464.16 50.2737C479.667 48.1141 495.473 47.7242 511.16 49.0739C573.577 54.4728 644.752 92.4448 701.53 150.663C722.976 172.648 742.441 197.933 761.307 222.408C787.972 257.05 815.566 292.863 849.039 319.677C857.257 326.216 865.206 331.735 873.394 336.534C920.334 364.158 967.754 365.868 1013.58 367.517L1016.97 367.637C1037.13 368.417 1058.64 369.467 1080.44 373.036C1113.88 378.525 1143.01 388.723 1169.43 404.289C1207.55 426.695 1237.37 457.528 1261.54 484.733C1267.72 491.691 1273.9 498.89 1279.9 505.818C1298.34 527.264 1317.45 549.459 1340.82 570.305L1341 570.095C1317.63 549.249 1298.55 527.084 1280.11 505.638C1274.14 498.68 1267.96 491.511 1261.75 484.523C1237.58 457.288 1207.73 426.425 1169.58 404.02C1143.13 388.453 1113.97 378.225 1080.5 372.736C1058.67 369.167 1037.16 368.087 1017 367.337L1013.61 367.217C967.814 365.568 920.424 363.858 873.544 336.294C865.386 331.495 857.437 325.976 849.249 319.467C815.776 292.683 788.212 256.87 761.547 222.258C742.711 197.783 723.216 172.468 701.77 150.483C644.932 92.2349 573.727 54.2028 511.25 48.804C495.533 47.4243 479.696 47.8442 464.19 50.0037C428.437 54.9827 395.954 68.8398 364.551 82.247L360.022 84.1666C317.131 102.433 277.929 117.91 232.458 122.229C133.869 131.557 8.40532 80.3874 -72.6377 -2.2453Z" fill="white"></path></g><g opacity="0.7343"><path d="M-79.8076 0.154175L-80.0176 0.364136C-60.4317 18.9602 -38.1763 36.1166 -13.9114 51.3834C10.2635 66.5602 35.8481 79.4875 62.1826 89.8054C117.461 111.461 172.439 120.309 221.179 115.39C266.11 110.861 305.941 95.1743 346.163 78.1378C347.933 77.388 349.672 76.6381 351.442 75.9183C381.916 62.991 413.439 49.6138 448.082 44.7249C463.228 42.5953 478.705 42.1754 494.092 43.4651C554.979 48.564 624.895 85.3063 681.133 141.695C703.658 164.28 724.084 190.494 743.85 215.869C771.264 251.052 799.638 287.434 833.891 314.428C842.379 321.087 850.627 326.696 859.055 331.525C907.495 359.329 955.905 359.689 1002.73 360.049L1007.31 360.079C1026.81 360.289 1049.55 360.799 1072.7 364.248C1107.19 369.407 1137.1 379.845 1164.12 396.221C1203.14 419.856 1232.69 452.639 1256.44 481.613C1262.32 488.782 1268.17 496.16 1273.84 503.299C1292.16 526.364 1311.09 550.209 1334.94 572.494L1335.15 572.284C1311.33 549.999 1292.37 526.154 1274.08 503.119C1268.41 495.98 1262.56 488.602 1256.68 481.433C1232.9 452.459 1203.32 419.616 1164.27 395.981C1137.19 379.575 1107.25 369.107 1072.73 363.948C1049.58 360.499 1026.81 359.989 1007.31 359.779L1002.73 359.749C955.935 359.389 907.555 358.999 859.205 331.255C850.777 326.426 842.559 320.817 834.071 314.158C799.848 287.164 771.504 250.812 744.09 215.629C724.324 190.254 703.868 164.04 681.343 141.425C654.468 114.46 623.545 91.2451 591.932 74.2686C575.645 65.5105 559.208 58.4319 543.072 53.243C526.335 47.8442 509.869 44.4249 494.122 43.1052C478.705 41.8154 463.199 42.2354 448.052 44.3649C413.349 49.2239 381.826 62.6311 351.322 75.5584C349.552 76.3082 347.813 77.058 346.043 77.7779C305.822 94.8143 266.02 110.471 221.149 115C123.91 124.928 2.97502 78.7377 -79.8076 0.154175Z" fill="white"></path></g><g opacity="0.7548"><path d="M-86.9756 2.55414L-87.1855 2.79407C-67.4197 20.1904 -45.2243 36.1771 -21.1994 50.3041C2.79559 64.4012 28.0503 76.3687 53.8749 85.8167C108.194 105.672 162.152 113.471 209.902 108.342C254.353 103.573 293.135 88.3961 332.247 71.9296C334.256 71.0898 336.236 70.2499 338.245 69.4101C367.819 56.9327 398.383 44.0054 431.976 39.2664C446.763 37.1669 461.909 36.7469 476.996 37.9767C536.414 42.8057 605.099 78.2882 660.708 132.877C684.343 156.092 705.758 183.236 726.484 209.511C754.648 245.233 783.772 282.156 818.745 309.36C827.533 316.138 836.021 321.837 844.749 326.726C894.719 354.74 944.208 353.781 992.048 352.881C993.938 352.851 995.827 352.821 997.687 352.761C1018.89 352.431 1041.72 352.551 1064.96 355.7C1100.48 360.499 1131.19 371.207 1158.84 388.423C1198.79 413.288 1228.07 448.051 1251.4 478.764C1257.01 486.143 1262.59 493.731 1267.99 501.05C1286.14 525.704 1304.88 551.199 1329.15 574.954L1329.36 574.744C1305.09 550.989 1286.35 525.524 1268.23 500.87C1262.83 493.521 1257.25 485.933 1251.64 478.584C1228.31 447.781 1199 413.018 1159.02 388.093C1144.63 379.125 1128.97 371.777 1112.53 366.228C1097.72 361.249 1081.73 357.56 1065.05 355.31C1041.78 352.161 1018.92 352.041 997.717 352.371C995.827 352.401 993.968 352.431 992.078 352.491C944.268 353.391 894.839 354.35 844.929 326.366C836.231 321.477 827.713 315.808 818.954 309.03C784.012 281.856 754.888 244.933 726.754 209.241C706.058 182.966 684.643 155.822 660.978 132.577C634.343 106.422 603.9 83.9871 572.916 67.6105C556.929 59.1523 540.793 52.3437 525.016 47.3347C508.61 42.1458 492.503 38.8466 477.086 37.6168C461.969 36.387 446.823 36.8069 432.006 38.9065C398.353 43.6755 367.789 56.5728 338.185 69.0802C336.176 69.92 334.196 70.7598 332.187 71.5996C293.075 88.0662 254.323 103.213 209.932 107.982C115.512 118.15 -3.77304 75.7688 -86.9756 2.55414Z" fill="white"></path></g><g opacity="0.7752"><path d="M-94.1143 4.95227L-94.3242 5.1922C-74.3484 21.3888 -52.213 36.2057 -28.488 49.193C-4.703 62.2103 20.2218 73.1879 45.5965 81.7661C98.9553 99.8224 151.864 106.541 198.654 101.232C242.595 96.2231 281.887 80.9263 318.359 65.6595C320.609 64.7297 322.828 63.7699 325.078 62.8401C353.722 50.8126 383.356 38.3652 415.929 33.7162C430.356 31.6467 445.173 31.1968 459.96 32.3665C517.967 36.9255 585.393 71.1484 640.342 123.907C665.147 147.722 687.552 175.856 709.207 203.031C738.061 239.263 767.935 276.725 803.598 304.08C812.656 310.978 821.444 316.767 830.442 321.686C882.001 349.94 932.571 347.69 981.52 345.501C983.71 345.411 985.899 345.291 988.089 345.201C1008.57 344.361 1032.81 343.881 1057.28 346.881C1093.82 351.35 1125.34 362.297 1153.59 380.354C1194.48 406.478 1223.45 443.16 1246.39 475.614C1251.76 483.202 1257.1 491 1262.26 498.559C1280.2 524.803 1298.73 551.918 1323.39 577.112L1323.63 576.872C1298.97 551.708 1280.44 524.563 1262.53 498.349C1257.37 490.79 1252.03 482.992 1246.66 475.404C1232 454.648 1219.07 438.421 1205.99 424.384C1189.11 406.208 1172.01 391.691 1153.77 380.054C1139.05 370.636 1123 362.987 1106.08 357.348C1090.88 352.279 1074.47 348.62 1057.31 346.521C1032.81 343.521 1008.57 343.971 988.059 344.841C985.87 344.931 983.68 345.021 981.49 345.141C932.601 347.33 882.061 349.58 830.592 321.356C821.594 316.437 812.836 310.678 803.808 303.78C768.145 276.425 738.301 238.993 709.447 202.791C687.792 175.586 665.387 147.482 640.552 123.637C614.187 98.3227 584.224 76.6072 553.87 60.8605C538.183 52.7023 522.377 46.1336 506.9 41.3346C490.853 36.3256 475.047 33.2063 459.96 32.0065C445.173 30.8368 430.326 31.2867 415.869 33.3563C383.266 38.0053 353.632 50.4527 324.958 62.5102C322.708 63.44 320.489 64.3998 318.239 65.3296C281.767 80.5664 242.505 95.8632 198.624 100.872C105.614 111.49 -9.29204 73.8178 -94.1143 4.95227Z" fill="white"></path></g><g opacity="0.7957"><path d="M-101.28 7.35394L-101.49 7.6239C-60.7288 37.9775 -12.7388 62.2424 37.2907 77.7492C89.6597 94.0058 141.549 99.6746 187.349 94.1558C230.84 88.9069 270.582 73.4901 304.415 59.423C306.904 58.4033 309.364 57.3535 311.853 56.3337C339.597 44.7561 368.301 32.7586 399.825 28.2296C413.922 26.19 428.379 25.7401 442.866 26.8499C500.394 31.2289 564.91 63.3522 619.919 115.061C645.923 139.506 669.318 168.6 691.964 196.734C721.507 233.447 752.071 271.419 788.453 298.983C797.781 306.031 806.839 311.85 816.137 316.859C869.316 345.383 921.025 341.814 971.055 338.365C973.515 338.185 976.004 338.035 978.463 337.855C998.049 336.565 1023.81 335.455 1049.58 338.305C1087.16 342.444 1119.46 353.631 1148.32 372.527C1190.4 400.062 1220.12 440.553 1241.36 472.736C1246.52 480.565 1251.62 488.573 1256.57 496.341C1274.26 524.146 1292.56 552.91 1317.6 579.544L1317.84 579.304C1292.83 552.7 1274.53 523.966 1256.84 496.161C1251.89 488.393 1246.79 480.355 1241.63 472.556C1227.23 450.721 1214.42 433.655 1201.32 418.838C1184.4 399.702 1167.12 384.465 1148.5 372.257C1133.44 362.389 1117 354.471 1099.64 348.712C1084.04 343.523 1067.21 339.924 1049.61 337.975C1023.81 335.125 998.049 336.235 978.433 337.525C975.974 337.705 973.514 337.855 971.025 338.035C921.055 341.484 869.376 345.053 816.287 316.559C807.019 311.58 797.961 305.761 788.663 298.713C752.311 271.209 721.777 233.237 692.233 196.524C669.588 168.39 646.163 139.296 620.159 114.821C594.094 90.3465 564.61 69.3809 534.856 54.2341C503.153 38.0675 472.199 28.7695 442.896 26.5499C428.409 25.4402 413.892 25.92 399.795 27.9296C368.241 32.4587 339.507 44.4562 311.763 56.0637C309.304 57.0836 306.814 58.1333 304.325 59.1531C270.522 73.1901 230.81 88.6069 187.349 93.8558C176.192 95.2055 164.644 95.8654 152.856 95.8654C69.5039 95.8354 -26.6859 62.9023 -101.28 7.35394Z" fill="white"></path></g><g opacity="0.8161"><path d="M-108.454 9.74994L-108.664 10.0499C-67.5127 37.9741 -19.9127 59.9894 28.9771 73.7566C80.3563 88.2135 131.226 92.8326 176.066 87.1038C214.848 82.1548 249.851 69.9774 290.492 53.2109C293.192 52.1011 295.921 50.9613 298.621 49.8516C325.465 38.6939 353.239 27.1763 383.713 22.7372C397.45 20.7576 411.577 20.2778 425.764 21.2975C482.002 25.4067 545.319 56.3302 599.487 106.15C626.722 131.195 651.167 161.278 674.772 190.402C704.975 227.594 736.199 266.076 773.271 293.79C782.869 300.959 792.197 306.868 801.765 311.907C856.563 340.701 909.472 335.842 960.642 331.133C963.371 330.893 966.071 330.623 968.77 330.383C988.656 328.613 1014.9 326.933 1041.77 329.573C1080.38 333.382 1113.49 344.81 1142.94 364.546C1185.95 393.34 1215.38 435.871 1236.22 469.674C1241.17 477.712 1246.09 485.99 1250.83 493.968C1268.29 523.362 1286.31 553.746 1311.72 581.79L1311.99 581.55C1286.61 553.536 1268.59 523.152 1251.16 493.788C1246.42 485.81 1241.5 477.532 1236.55 469.494C1215.71 435.631 1186.25 393.07 1143.18 364.246C1127.8 353.928 1110.94 345.74 1093.12 339.831C1077.17 334.552 1059.89 330.983 1041.83 329.213C1014.93 326.574 988.656 328.253 968.77 330.023C966.071 330.263 963.341 330.503 960.642 330.773C909.532 335.482 856.684 340.341 801.975 311.607C792.407 306.568 783.109 300.659 773.511 293.52C736.499 265.836 705.275 227.384 675.072 190.222C651.437 161.098 626.992 131.015 599.727 105.94C573.993 82.2747 544.989 62.059 515.805 47.512C484.732 32.0053 454.468 23.0972 425.794 20.9976C411.607 19.9478 397.42 20.4277 383.683 22.4373C353.149 26.8763 325.375 38.3939 298.501 49.5516C295.801 50.6614 293.102 51.8011 290.372 52.9109C249.761 69.6474 214.758 81.8248 176.036 86.7738C87.2848 98.0814 -21.7423 68.5676 -108.454 9.74994Z" fill="white"></path></g><g opacity="0.8365"><path d="M-115.593 12.1494L-115.803 12.4794C-74.2914 37.944 -27.0813 57.7399 20.6986 69.7374C45.3535 75.9161 69.8883 79.9652 93.6434 81.7648C118.418 83.6245 142.383 83.0546 164.818 80.0252C205.55 74.5363 242.622 60.8892 276.605 46.9721C279.544 45.7724 282.484 44.5726 285.393 43.3429C311.338 32.6351 338.182 21.5375 367.636 17.2484C381.013 15.2988 394.84 14.7889 408.697 15.7787C463.706 19.6179 525.823 49.3416 579.092 97.2716C607.586 122.916 633.08 154.05 657.705 184.133C688.539 221.806 720.422 260.737 758.124 288.602C767.992 295.86 777.59 301.889 787.458 306.958C812.743 319.975 839.947 327.053 870.63 328.553C897.805 329.903 924.529 326.844 950.354 323.904C953.293 323.574 956.233 323.244 959.172 322.914C979.358 320.695 1006.14 318.445 1034.1 320.875C1073.87 324.354 1107.76 336.022 1137.72 356.597C1181.58 386.471 1210.73 431.102 1231.24 466.674C1236.01 474.952 1240.72 483.441 1245.28 491.659C1262.47 522.612 1280.22 554.616 1305.96 584.1L1306.23 583.86C1280.52 554.406 1262.77 522.433 1245.61 491.479C1241.05 483.261 1236.34 474.773 1231.57 466.494C1211.06 430.892 1181.88 386.201 1137.96 356.297C1122.28 345.53 1105.06 337.011 1086.74 331.013C1070.42 325.674 1052.72 322.134 1034.16 320.515C1006.17 318.085 979.388 320.335 959.172 322.554C956.233 322.884 953.293 323.214 950.354 323.544C898.075 329.513 844.026 335.692 787.668 306.628C777.83 301.559 768.232 295.56 758.364 288.302C720.692 260.467 688.839 221.536 658.005 183.893C633.35 153.78 607.886 122.646 579.362 97.0017C553.987 74.1765 525.433 54.7105 496.819 40.7334C466.405 25.8865 436.771 17.3683 408.727 15.4188C394.84 14.429 380.983 14.9388 367.576 16.8884C338.062 21.2075 311.218 32.3052 285.243 43.013C282.304 44.2127 279.394 45.4424 276.455 46.6422C242.472 60.5593 205.43 74.1764 164.758 79.6653C78.7065 91.2729 -28.731 65.4183 -115.593 12.1494Z" fill="white"></path></g><g opacity="0.857"><path d="M378.643 9.3894C369.465 9.3894 360.407 10.0493 351.529 11.369C323.065 15.5682 297.121 26.2159 272.046 36.5037C268.896 37.7935 265.747 39.0832 262.568 40.3729C231.374 53.0303 194.002 66.7675 153.511 72.5562C68.7484 84.6737 -34.5199 62.9882 -122.761 14.5483L-122.941 14.8783C-81.0702 37.8535 -34.25 55.4298 12.4202 65.7177C36.6252 71.0565 60.6501 74.3858 83.8952 75.6755C108.13 76.9953 131.555 76.0955 153.571 72.9461C194.122 67.1573 231.494 53.4202 262.718 40.7328C265.867 39.4431 269.016 38.1534 272.196 36.8637C297.241 26.5759 323.155 15.9281 351.589 11.7289C364.606 9.80933 378.104 9.29944 391.661 10.1993C445.499 13.7985 506.387 42.2626 558.726 88.3629C588.539 114.607 615.084 146.761 640.729 177.894C672.162 216.016 704.705 255.428 743.037 283.442C752.935 290.641 763.073 296.909 773.211 302.068C799.335 315.205 827.349 322.074 858.873 323.094C886.767 323.993 914.121 320.274 940.546 316.705C943.575 316.285 946.604 315.895 949.604 315.475C968.53 312.986 997.084 309.956 1026.42 312.206C1067.21 315.325 1101.88 327.263 1132.48 348.678C1177.32 379.872 1206.11 426.512 1226.21 463.704C1230.79 472.222 1235.35 480.951 1239.73 489.409C1256.62 521.922 1274.11 555.575 1300.17 586.438L1300.47 586.199C1274.44 555.335 1256.98 521.742 1240.09 489.229C1235.71 480.771 1231.15 472.042 1226.57 463.524C1206.44 426.302 1177.62 379.602 1132.69 348.378C1116.67 337.161 1099.03 328.373 1080.29 322.254C1063.58 316.795 1045.46 313.286 1026.42 311.846C997.024 309.596 968.47 312.626 949.514 315.115C946.514 315.505 943.485 315.925 940.456 316.345C886.917 323.574 831.579 331.042 773.361 301.738C763.253 296.609 753.115 290.341 743.247 283.172C704.945 255.188 672.462 215.806 641.029 177.684C615.354 146.551 588.809 114.397 558.996 88.1229C533.981 66.1075 505.937 47.3915 477.863 34.0143C448.139 19.8273 419.135 11.699 391.691 9.86938C387.312 9.53943 382.963 9.3894 378.643 9.3894Z" fill="white"></path></g><g opacity="0.8774"><path d="M362.359 3.90259C353.241 3.90259 344.242 4.56244 335.454 5.88214C307.98 9.99127 282.965 20.1891 258.79 30.0571C255.491 31.4068 252.042 32.8165 248.683 34.1663C218.659 46.2537 182.546 59.421 142.265 65.5097C58.7623 78.107 -40.4269 60.4407 -129.898 16.9799L-130.078 17.3397C-87.877 37.8254 -41.4767 53.1823 4.14374 61.7604C27.8688 66.2296 51.4438 68.869 74.1791 69.6188C97.8441 70.3986 120.759 69.1689 142.325 65.8996C182.636 59.8109 218.809 46.6136 248.832 34.5262C252.222 33.1765 255.641 31.7667 258.94 30.4171C283.115 20.5491 308.1 10.3513 335.514 6.27209C348.172 4.38251 361.339 3.84259 374.596 4.7124C427.325 8.04169 486.983 35.306 538.332 79.5167C569.495 106.331 597.089 139.594 623.784 171.717C655.817 210.289 688.93 250.151 727.892 278.285C738.06 285.604 748.498 291.962 758.906 297.151C785.78 310.438 814.514 317.127 846.817 317.637C875.401 318.087 903.325 313.738 930.32 309.539C933.559 309.029 936.768 308.549 939.978 308.039C970.541 303.42 995.556 301.98 1018.71 303.51C1060.49 306.299 1096 318.477 1127.2 340.732C1173.03 373.215 1201.49 421.895 1221.17 460.677C1225.61 469.435 1229.99 478.403 1234.22 487.101C1250.83 521.204 1267.99 556.447 1294.38 588.75L1294.71 588.48C1268.35 556.207 1251.19 520.994 1234.61 486.921C1230.38 478.253 1226 469.255 1221.56 460.497C1208.3 434.402 1195.94 413.857 1182.69 395.89C1165.65 372.825 1147.59 354.679 1127.47 340.402C1111.12 328.734 1093.1 319.676 1073.9 313.438C1056.83 307.889 1038.27 304.41 1018.77 303.12C995.586 301.56 970.541 303 939.948 307.649C936.738 308.129 933.499 308.639 930.29 309.149C875.581 317.637 819.013 326.425 759.116 296.791C748.738 291.602 738.33 285.274 728.162 277.955C689.26 249.851 656.147 209.989 624.144 171.447C597.449 139.294 569.825 106.031 538.632 79.1868C487.223 34.9161 427.445 7.62177 374.656 4.26251C370.517 4.02252 366.408 3.90259 362.359 3.90259Z" fill="white"></path></g><g opacity="0.8978"><path d="M346.071 -1.61664C336.983 -1.61664 328.045 -0.956787 319.347 0.362915C292.892 4.35211 268.778 14.1301 245.472 23.5781C241.963 25.0178 238.304 26.4875 234.735 27.8972C207.62 38.7249 171.328 51.9521 130.956 58.4008C49.8235 71.358 -47.8661 57.111 -137.097 19.379L-137.277 19.7689C-94.8062 37.7351 -48.7659 50.8724 -4.19525 57.7409C43.7047 65.1194 89.1752 65.4793 131.016 58.8207C171.418 52.372 207.77 39.1148 234.885 28.287C238.484 26.8474 242.113 25.3777 245.622 23.938C268.898 14.4899 292.982 4.742 319.377 0.752869C331.674 -1.10675 344.482 -1.64667 357.469 -0.866821C409.118 2.22253 467.606 28.2571 517.875 70.6082C550.418 97.9925 579.122 132.335 606.867 165.538C639.47 204.53 673.153 244.842 712.684 273.126C723.152 280.594 733.86 287.013 744.538 292.232C772.132 305.669 801.616 312.178 834.639 312.178C834.669 312.178 834.699 312.178 834.699 312.178C863.943 312.178 892.467 307.199 920.061 302.4C923.48 301.8 926.9 301.2 930.289 300.63C961.152 295.351 986.767 293.521 1010.94 294.871C1053.86 297.421 1090.16 309.838 1121.89 332.843C1168.41 366.436 1196.69 417.216 1216.1 457.737C1220.24 466.435 1224.32 475.373 1228.25 484.012C1244.65 519.944 1261.63 557.136 1288.53 591.119L1288.86 590.849C1261.99 556.896 1245.01 519.764 1228.64 483.832C1224.71 475.193 1220.63 466.285 1216.49 457.557C1197.05 417.006 1168.74 366.166 1122.13 332.513C1105.45 320.426 1087.04 311.068 1067.36 304.709C1049.93 299.1 1030.98 295.621 1010.97 294.451C986.797 293.102 961.122 294.961 930.229 300.21C926.84 300.78 923.42 301.38 920.001 301.98C864.093 311.728 806.295 321.806 744.718 291.872C734.07 286.653 723.362 280.234 712.924 272.796C673.423 244.572 639.74 204.26 607.167 165.298C579.392 132.095 550.688 97.7525 518.115 70.3083C467.756 27.9272 409.208 1.83258 357.469 -1.25677C353.69 -1.4967 349.881 -1.61664 346.071 -1.61664Z" fill="white"></path></g><g opacity="0.9183"><path d="M329.815 -7.13763C320.786 -7.13763 311.878 -6.47778 303.27 -5.15808C277.806 -1.28888 254.62 8.06915 232.185 17.0973C228.466 18.597 224.627 20.1566 220.817 21.6563C182.845 36.6531 150.722 46.1012 119.679 51.3201C39.5354 64.8173 -54.1949 54.3495 -144.266 21.7763L-144.416 22.1962C-101.105 37.8529 -56.7144 48.4707 -12.4736 53.7496C34.2865 59.3284 78.7672 58.6686 119.739 51.74C150.812 46.4911 182.965 37.0731 220.967 22.0463C224.777 20.5466 228.616 18.9869 232.335 17.4872C254.74 8.45905 277.925 -0.868958 303.3 -4.73816C315.238 -6.56775 327.715 -7.10767 340.402 -6.38782C391.062 -3.53839 448.32 21.2664 497.479 61.7279C531.432 89.682 561.246 125.135 590.04 159.417C623.183 198.829 657.436 239.591 697.538 267.965C708.275 275.553 719.253 282.062 730.201 287.341C758.575 300.928 788.838 307.286 822.671 306.747C852.605 306.297 881.729 300.688 909.893 295.259C913.492 294.569 917.092 293.879 920.661 293.189C951.644 287.341 978.639 285.061 1003.2 286.201C1047.11 288.39 1084.19 301.048 1116.58 324.923C1164.15 359.865 1192.04 412.654 1211.03 454.736C1215.05 463.734 1219.01 472.972 1222.85 481.88C1238.92 519.342 1255.54 558.064 1282.71 593.396L1283.07 593.127C1255.93 557.824 1239.31 519.132 1223.27 481.7C1219.43 472.792 1215.47 463.554 1211.45 454.556C1198.7 426.302 1186.56 404.046 1173.24 384.52C1156.17 359.506 1137.73 339.89 1116.85 324.563C1099.84 312.025 1081.01 302.397 1060.91 295.919C1043.1 290.19 1023.69 286.771 1003.23 285.751C978.639 284.611 951.614 286.891 920.571 292.77C917.002 293.459 913.402 294.149 909.803 294.839C852.695 305.847 793.637 317.244 730.381 286.951C719.463 281.702 708.485 275.193 697.778 267.635C657.706 239.291 623.483 198.559 590.37 159.177C561.546 124.895 531.732 89.4121 497.749 61.458C448.5 20.9365 391.152 -3.92828 340.402 -6.77771C336.893 -7.04767 333.324 -7.13763 329.815 -7.13763Z" fill="white"></path></g><g opacity="0.9387"><path d="M313.559 -12.6532C304.561 -12.6532 295.713 -11.9933 287.195 -10.6736C262.75 -6.92438 240.434 2.01373 218.869 10.6519C214.97 12.2116 210.921 13.8312 206.931 15.3909C170.579 29.6079 139.266 38.786 108.432 44.2149C30.4784 58.2219 -61.8122 51.1134 -151.403 24.1791L-151.523 24.629C-107.973 37.7362 -63.9718 46.1945 -20.6909 49.8237C24.9296 53.6329 68.4204 51.9233 108.552 44.6948C139.416 39.2659 170.759 30.0878 207.141 15.8408C211.131 14.2811 215.18 12.6615 219.079 11.1018C240.614 2.46362 262.9 -6.44452 287.285 -10.1937C298.862 -11.9633 311.01 -12.5632 323.397 -11.9034C373.097 -9.32391 429.155 14.3111 477.145 52.8831C512.567 81.347 543.491 117.939 573.365 153.332C607.017 193.164 641.78 234.345 682.452 262.839C693.459 270.547 704.737 277.146 715.955 282.455C745.109 296.192 776.092 302.371 810.735 301.351C841.358 300.451 871.082 294.182 899.846 288.154C903.625 287.374 907.374 286.564 911.094 285.784C942.617 279.276 970.241 276.576 995.556 277.536C1040.46 279.366 1078.34 292.263 1111.36 317.008C1159.98 353.3 1187.49 408.069 1206.05 451.769C1209.98 461.067 1213.82 470.605 1217.54 479.814C1233.29 518.775 1249.54 559.057 1276.96 595.739L1277.32 595.469C1249.93 558.817 1233.68 518.565 1217.93 479.634C1214.21 470.426 1210.34 460.888 1206.44 451.589C1193.99 422.316 1181.97 399.19 1168.59 378.825C1151.49 352.85 1132.87 332.514 1111.6 316.648C1094.27 303.66 1075.04 293.733 1054.46 287.164C1036.26 281.345 1016.43 277.956 995.526 277.116C970.181 276.156 942.527 278.856 910.974 285.364C907.224 286.144 903.475 286.924 899.726 287.734C841.418 300.001 781.101 312.689 716.135 282.065C704.947 276.756 693.699 270.187 682.692 262.479C642.08 234.015 607.317 192.864 573.694 153.062C543.791 117.669 512.867 81.0471 477.385 52.5531C429.305 13.9212 373.157 -9.74377 323.367 -12.3232C320.098 -12.5632 316.798 -12.6532 313.559 -12.6532Z" fill="white"></path></g><g opacity="0.9591"><path d="M297.334 -18.1716C288.336 -18.1716 279.548 -17.5117 271.09 -16.192C247.635 -12.5327 226.219 -4.01447 205.524 4.2038C201.414 5.82349 197.185 7.53308 192.986 9.15277C159.153 22.26 127.78 31.4081 97.1263 37.1368C19.5326 51.8338 -68.9188 48.1746 -158.63 26.5791L-158.75 27.029C-115.199 37.5268 -71.5583 43.8255 -29.0572 45.7751C15.3035 47.8146 57.7746 45.0552 97.1863 37.5868C127.87 31.858 159.273 22.6799 193.136 9.57269C197.335 7.953 201.564 6.27338 205.674 4.62372C226.339 -3.59454 247.725 -12.1128 271.12 -15.7421C282.337 -17.4817 294.155 -18.0815 306.242 -17.5117C355.072 -15.1722 409.901 7.23315 456.661 43.9155C493.613 72.8894 525.646 110.651 556.6 147.154C590.733 187.375 626.035 228.977 667.217 257.561C678.494 265.389 690.072 272.078 701.56 277.417C731.463 291.304 763.227 297.332 798.679 295.803C830.023 294.453 860.346 287.554 889.68 280.896C893.519 280.026 897.509 279.126 901.408 278.256C933.501 271.088 961.725 267.998 987.76 268.778C1032.99 270.218 1072.79 283.745 1105.99 308.97C1156.29 347.062 1184.31 406.959 1201.01 448.711C1204.85 458.309 1208.57 468.146 1212.2 477.654C1227.59 518.116 1243.52 559.957 1271.2 597.989L1271.59 597.719C1243.97 559.717 1228.04 517.906 1212.65 477.475C1209.02 467.967 1205.3 458.129 1201.46 448.531C1189.35 418.237 1177.41 394.242 1163.97 373.066C1146.88 346.132 1128.04 325.047 1106.38 308.64C1088.69 295.203 1069.07 285.005 1048.08 278.286C1029.48 272.348 1009.21 269.018 987.88 268.328C961.815 267.549 933.531 270.638 901.408 277.806C897.509 278.676 893.519 279.576 889.68 280.446C830.143 293.973 768.566 307.98 701.86 277.027C690.402 271.688 678.854 264.999 667.577 257.201C626.425 228.647 591.153 187.075 557.05 146.854C526.066 110.322 494.003 72.5594 457.021 43.5555C410.171 6.78326 355.222 -15.6221 306.332 -17.9916C303.303 -18.1116 300.304 -18.1716 297.334 -18.1716Z" fill="white"></path></g><g opacity="0.9796"><path d="M281.135 -23.6915C272.167 -23.6915 263.409 -23.0317 255.01 -21.7119C232.515 -18.1727 211.999 -10.0743 192.174 -2.216C187.885 -0.536316 183.475 1.23328 179.096 2.91296C147.903 14.8504 116.529 23.9985 85.8759 30.0573C9.21198 45.3541 -77.8298 44.9941 -165.771 29.0074L-165.861 29.4874C-122.43 37.3757 -79.2095 41.5149 -37.3083 41.8148C5.64273 42.0847 47.124 38.3055 85.9659 30.5671C116.649 24.4785 148.053 15.3603 179.276 3.39282C183.655 1.7132 188.094 -0.0264282 192.354 -1.73608C212.179 -9.56445 232.665 -17.6628 255.07 -21.202C265.928 -22.9117 277.416 -23.5116 289.203 -23.0016C337.193 -20.9021 390.792 0.273499 436.322 35.0962C474.804 64.55 507.977 103.512 540.071 141.154C557.407 161.52 575.343 182.575 593.729 201.621C614.335 222.977 633.441 239.593 652.187 252.491C663.765 260.439 675.582 267.218 687.37 272.616C718.053 286.653 750.567 292.502 786.829 290.463C818.862 288.663 849.816 281.135 879.75 273.846C883.739 272.886 887.878 271.867 891.927 270.907C924.56 263.078 953.444 259.569 980.198 260.199C1026.42 261.279 1067 275.076 1100.89 301.14C1152.12 340.582 1179.75 402.579 1196.06 445.77C1199.78 455.668 1203.44 465.806 1206.95 475.644C1222.01 517.605 1237.57 560.976 1265.47 600.388L1265.86 600.118C1237.9 560.676 1222.37 517.305 1207.31 475.404C1203.8 465.596 1200.14 455.458 1196.42 445.53C1184.76 414.637 1172.61 389.052 1159.29 367.337C1142.16 339.442 1123.15 317.637 1101.1 300.691C1083.08 286.803 1063.07 276.306 1041.63 269.497C1022.64 263.468 1001.94 260.139 980.138 259.629C953.354 259.029 924.44 262.539 891.747 270.367C887.698 271.327 883.589 272.346 879.57 273.306C818.772 288.123 755.935 303.42 687.52 272.107C675.792 266.708 663.975 259.959 652.427 252.041C610.766 223.397 575.013 181.406 540.431 140.794C508.337 103.122 475.164 64.1601 436.622 34.6463C413.887 17.2499 389.442 3.33289 363.978 -6.74506C338.423 -16.8529 313.288 -22.4918 289.263 -23.5416C286.504 -23.6315 283.804 -23.6915 281.135 -23.6915Z" fill="white"></path></g><path d="M264.848 -29.2111C255.91 -29.2111 247.242 -28.5512 238.934 -27.2315C217.428 -23.8122 197.782 -16.1039 178.796 -8.63544C174.327 -6.89581 169.738 -5.06622 165.179 -3.35657C93.3142 23.8177 12.5411 37.6449 -72.4011 37.6449C-105.394 37.6449 -138.957 35.5753 -172.94 31.3762L-173 31.886C-112.323 39.3845 -52.6352 40.2243 4.35281 34.3755C61.3409 28.5268 115.51 15.9894 165.359 -2.87665C169.918 -4.58624 174.537 -6.41589 178.976 -8.15552C197.932 -15.594 217.548 -23.3024 238.994 -26.7216C293.672 -35.4498 359.808 -15.654 415.897 26.1873C455.998 56.091 490.311 96.2526 523.484 135.094C545.799 161.219 568.865 188.213 593.189 211.368C620.424 237.283 646.518 255.699 673.003 267.667C704.466 281.884 737.759 287.552 774.801 285.003C807.524 282.753 839.108 274.565 869.641 266.677C873.781 265.597 878.04 264.487 882.209 263.438C971.05 240.762 1040.82 250.48 1095.49 293.161C1147.77 333.953 1174.98 398.049 1190.9 442.71C1194.53 452.908 1198.07 463.376 1201.49 473.484C1216.19 516.944 1231.4 561.875 1259.56 602.606L1259.98 602.307C1231.88 561.635 1216.67 516.734 1201.97 473.304C1198.55 463.196 1195.01 452.728 1191.38 442.53C1180.02 410.647 1167.99 384.162 1154.61 361.637C1137.49 332.783 1118.26 310.258 1095.82 292.741C1079.57 280.054 1061.69 270.126 1042.68 263.258C1025.55 257.049 1006.98 253.15 987.547 251.62C955.903 249.161 921.411 252.85 882.059 262.898C877.89 263.977 873.601 265.057 869.462 266.137C807.435 282.214 743.308 298.83 673.153 267.157C614.245 240.552 570.304 189.143 523.814 134.705C490.611 95.8627 456.268 55.6711 416.136 25.7374C388.752 5.31165 357.919 -10.3751 326.995 -19.6431C305.76 -25.9718 284.644 -29.2111 264.848 -29.2111Z" fill="white"></path></g></svg>