<svg xmlns="http://www.w3.org/2000/svg" width="153" height="25" viewBox="0 0 153 25" fill="none"><path d="M11.3906 25C7.95416 25 5.27996 24.2189 3.36798 22.6568C1.45599 21.0695 0.5 18.9027 0.5 16.1564C0.5 14.1911 0.887565 12.3644 1.66269 10.6763C2.43782 8.96304 3.523 7.4765 4.91824 6.21673C6.31347 4.93175 7.94124 3.93653 9.80155 3.23106C11.6619 2.50039 13.6772 2.13505 15.8476 2.13505C17.1394 2.13505 18.3926 2.24843 19.6069 2.47519C20.8471 2.67675 21.9065 2.9791 22.785 3.38223L21.6998 8.55991L19.4907 8.67329L19.2581 5.2341C18.7672 4.95695 18.1859 4.75539 17.5141 4.62941C16.8423 4.47823 16.093 4.40265 15.2662 4.40265C13.8451 4.40265 12.5533 4.70499 11.3906 5.30969C10.2279 5.91438 9.23312 6.73323 8.40632 7.76625C7.57951 8.79927 6.93357 9.99606 6.46849 11.3566C6.02925 12.7172 5.80963 14.1533 5.80963 15.6651C5.80963 17.8067 6.37806 19.52 7.51492 20.8049C8.67761 22.0647 10.2666 22.6946 12.282 22.6946C12.592 22.6946 12.9537 22.6694 13.3671 22.619C13.7805 22.5686 14.1939 22.4804 14.6074 22.3545C15.0466 22.2033 15.46 22.0017 15.8476 21.7498L14.5298 23.8284L15.3825 19.9735C15.4858 19.5452 15.5763 19.1042 15.6538 18.6507C15.7313 18.1972 15.7959 17.7815 15.8476 17.4035C15.9251 17.0256 15.9767 16.7233 16.0026 16.4965L13.4059 16.0052L13.9097 14.2289H22.785L22.5137 15.9296L20.5371 16.4587C20.4596 16.6603 20.3562 17.013 20.227 17.5169C20.1237 18.0208 20.0074 18.5877 19.8782 19.2176C19.7749 19.7719 19.6586 20.3388 19.5294 20.9183C19.4261 21.4726 19.3098 22.1655 19.1806 22.997C18.3796 23.4253 17.527 23.7906 16.6227 24.093C15.7184 24.3953 14.8141 24.6221 13.9097 24.7732C13.0054 24.9244 12.1657 25 11.3906 25Z" fill="#1A3841"></path><path d="M35.7498 11.5834C35.2589 11.5834 34.7679 11.8227 34.277 12.3014C33.812 12.755 33.3469 13.3849 32.8818 14.1911C32.4167 14.9722 31.9387 15.8792 31.4478 16.9122C30.8019 18.2728 30.2334 19.6585 29.7425 21.0695C29.2774 22.4804 28.9286 23.6772 28.6961 24.6599H24.3166C24.7042 23.4757 25.0917 22.2033 25.4793 20.8427C25.8669 19.4822 26.2286 18.1468 26.5645 16.8366C26.9004 15.5013 27.1588 14.3045 27.3396 13.2463C27.5463 12.1629 27.6497 11.344 27.6497 10.7897C27.1329 11.0921 26.6162 11.4826 26.0994 11.9613C25.6085 12.44 25.1047 13.0447 24.5879 13.7754L23.5027 12.377C24.1487 11.5456 24.8463 10.7897 25.5956 10.1094C26.3707 9.42916 27.1329 8.88745 27.8822 8.48433C28.6573 8.0812 29.3679 7.87963 30.0138 7.87963C30.5306 7.87963 30.9181 8.03081 31.1765 8.33315C31.4607 8.6103 31.6028 9.11421 31.6028 9.84488C31.6028 10.1976 31.5253 10.8275 31.3703 11.7345C31.2153 12.6164 30.9311 13.8006 30.5177 15.2871C30.1042 16.7737 29.4841 18.6129 28.6573 20.8049H28.5023C29.2516 18.8397 29.9492 17.0634 30.5952 15.4761C31.2669 13.8888 31.9258 12.5282 32.5717 11.3944C33.2435 10.2606 33.9282 9.39136 34.6258 8.78667C35.3493 8.18198 36.1373 7.87963 36.99 7.87963C37.6359 7.87963 38.1268 8.056 38.4627 8.40874C38.7986 8.73628 38.9666 9.2024 38.9666 9.80709C38.9666 10.2354 38.8632 10.6889 38.6565 11.1677C38.4756 11.6464 38.1914 12.0873 37.8039 12.4904C37.5197 12.2133 37.1838 11.9991 36.7962 11.8479C36.4345 11.6716 36.0857 11.5834 35.7498 11.5834Z" fill="#1A3841"></path><path d="M43.4437 24.9622C42.281 24.9622 41.2604 24.7229 40.3819 24.2441C39.5035 23.7654 38.8188 23.0851 38.3279 22.2033C37.8369 21.3215 37.5915 20.2758 37.5915 19.0665C37.5915 17.6303 37.8499 16.2446 38.3666 14.9092C38.8834 13.5486 39.5939 12.3518 40.4982 11.3188C41.4025 10.2606 42.436 9.42916 43.5987 8.82446C44.7873 8.19458 46.0275 7.87963 47.3194 7.87963C48.482 7.87963 49.5026 8.11899 50.3811 8.5977C51.2854 9.07642 51.983 9.7567 52.474 10.6385C52.9649 11.5204 53.2103 12.5786 53.2103 13.8132C53.2103 15.2493 52.952 16.6351 52.4352 17.9704C51.9185 19.3058 51.2079 20.5026 50.3036 21.5608C49.3993 22.619 48.3529 23.4505 47.1643 24.0552C46.0016 24.6599 44.7614 24.9622 43.4437 24.9622ZM44.4514 22.808C45.0715 22.808 45.6399 22.5812 46.1567 22.1277C46.6992 21.649 47.1643 21.0065 47.5519 20.2003C47.9395 19.394 48.2366 18.4618 48.4433 17.4035C48.65 16.3453 48.7533 15.2367 48.7533 14.0777C48.7533 12.818 48.5337 11.8101 48.0945 11.0543C47.6811 10.2984 47.1385 9.92047 46.4667 9.92047C45.8208 9.92047 45.2265 10.1598 44.6839 10.6385C44.1672 11.1173 43.715 11.7723 43.3274 12.6038C42.9399 13.4101 42.6427 14.3423 42.436 15.4005C42.2293 16.4335 42.126 17.5295 42.126 18.6885C42.126 19.9987 42.3327 21.0191 42.7461 21.7498C43.1853 22.4553 43.7538 22.808 44.4514 22.808Z" fill="#1A3841"></path><path d="M58.4239 24.811L57.9975 18.8775C57.8942 17.2146 57.7521 15.7154 57.5712 14.3801C57.3903 13.0195 57.2095 11.8605 57.0286 10.9031C56.176 11.5834 55.375 12.5408 54.6257 13.7754L53.4243 12.4904C54.0444 11.533 54.6903 10.7141 55.3621 10.0339C56.0339 9.35357 56.6927 8.82447 57.3387 8.44653C57.9846 8.0686 58.566 7.87963 59.0827 7.87963C59.7028 7.87963 60.1679 8.0434 60.4779 8.37094C60.788 8.67329 61.0076 9.215 61.1368 9.99606C61.266 10.7267 61.3952 11.7849 61.5244 13.1707C61.6536 14.5313 61.7698 16.106 61.8732 17.8949L62.1445 22.4678H61.0205L68.3843 8.18198H71.291L72.2599 22.5434L71.4848 22.619C72.6733 21.46 73.6293 20.301 74.3528 19.142C75.0762 17.9578 75.6059 16.7485 75.9418 15.5139C76.2777 14.2541 76.4456 12.9313 76.4456 11.5456C76.4456 10.8653 76.3939 10.2858 76.2906 9.80709C76.1872 9.32838 76.0451 8.88745 75.8643 8.48433C76.1485 8.30796 76.4973 8.16938 76.9107 8.0686C77.3499 7.94262 77.7375 7.87963 78.0734 7.87963C78.8743 7.87963 79.4815 8.10639 79.8949 8.55991C80.3342 9.01343 80.5538 9.7567 80.5538 10.7897C80.5538 11.8731 80.3083 13.0321 79.8174 14.2667C79.3265 15.4761 78.6547 16.7107 77.8021 17.9704C76.9753 19.2302 76.0193 20.4522 74.9341 21.6364C73.8748 22.7954 72.7637 23.8536 71.601 24.811H68.578L67.6866 12.3392H68.5005L61.9894 24.811H58.4239Z" fill="#1A3841"></path><path d="M83.059 24.6599V0H88.1667V10.2053H99.0964V0H104.24V24.6599H99.0964V14.8029H88.1667V24.6599H83.059Z" fill="#1A3841"></path><path d="M116.711 24.9037C113.949 24.9037 111.818 24.2187 110.318 22.8487C108.841 21.4555 108.103 19.3657 108.103 16.5792V6.30429H113.104V16.2309C113.104 17.0669 113.223 17.8099 113.461 18.4601C113.723 19.087 114.116 19.5862 114.64 19.9578C115.187 20.3293 115.89 20.5151 116.747 20.5151C117.676 20.5151 118.39 20.3177 118.89 19.9229C119.39 19.5282 119.735 19.0057 119.926 18.3556C120.116 17.6822 120.212 16.974 120.212 16.2309V6.30429H125.176V16.5792C125.176 19.4818 124.426 21.5948 122.926 22.9183C121.45 24.2419 119.378 24.9037 116.711 24.9037Z" fill="#1A3841"></path><path d="M139.069 24.9037C138.45 24.9037 137.795 24.8456 137.105 24.7295C136.438 24.6134 135.771 24.3928 135.105 24.0677C134.462 23.7194 133.854 23.2318 133.283 22.6049L133.247 24.6599H128.354V0H133.354V8.46377C134.069 7.62784 134.95 7.0125 135.997 6.61776C137.069 6.1998 138.176 5.99081 139.319 5.99081C141.177 5.99081 142.701 6.40878 143.891 7.2447C145.082 8.05741 145.963 9.17198 146.534 10.5884C147.13 12.0048 147.427 13.6303 147.427 15.4647C147.427 17.2526 147.13 18.8664 146.534 20.3061C145.939 21.7225 145.022 22.8487 143.784 23.6846C142.57 24.4973 140.998 24.9037 139.069 24.9037ZM137.998 20.5499C139.164 20.5499 140.069 20.2945 140.712 19.7836C141.355 19.2728 141.808 18.6226 142.07 17.8331C142.331 17.0436 142.462 16.2193 142.462 15.3602C142.462 14.501 142.32 13.6999 142.034 12.9569C141.748 12.1906 141.272 11.5869 140.605 11.1457C139.962 10.6813 139.093 10.4491 137.998 10.4491C136.998 10.4491 136.14 10.6929 135.426 11.1805C134.735 11.6449 134.212 12.2603 133.854 13.0265C133.497 13.7928 133.319 14.6171 133.319 15.4995C133.319 16.3819 133.473 17.2178 133.783 18.0073C134.116 18.7735 134.628 19.3889 135.319 19.8533C136.009 20.3177 136.902 20.5499 137.998 20.5499Z" fill="#1A3841"></path><path d="M150.357 24.6599C149.738 24.6599 149.226 24.4625 148.821 24.0677C148.416 23.673 148.214 23.1738 148.214 22.57C148.214 21.9663 148.416 21.4671 148.821 21.0723C149.226 20.6776 149.738 20.4802 150.357 20.4802C150.976 20.4802 151.488 20.6776 151.893 21.0723C152.298 21.4671 152.5 21.9663 152.5 22.57C152.5 23.1738 152.298 23.673 151.893 24.0677C151.488 24.4625 150.976 24.6599 150.357 24.6599Z" fill="#1A3841"></path></svg>