<svg xmlns="http://www.w3.org/2000/svg" width="152" height="25" viewBox="0 0 152 25" fill="none"><path d="M10.8906 25C7.45416 25 4.77996 24.2189 2.86798 22.6568C0.955993 21.0695 0 18.9027 0 16.1564C0 14.1911 0.387565 12.3644 1.16269 10.6763C1.93782 8.96304 3.023 7.4765 4.41824 6.21673C5.81347 4.93175 7.44124 3.93653 9.30155 3.23106C11.1619 2.50039 13.1772 2.13505 15.3476 2.13505C16.6394 2.13505 17.8926 2.24843 19.1069 2.47519C20.3471 2.67675 21.4065 2.9791 22.285 3.38223L21.1998 8.55991L18.9907 8.67329L18.7581 5.2341C18.2672 4.95695 17.6859 4.75539 17.0141 4.62941C16.3423 4.47823 15.593 4.40265 14.7662 4.40265C13.3451 4.40265 12.0533 4.70499 10.8906 5.30969C9.72787 5.91438 8.73312 6.73323 7.90632 7.76625C7.07951 8.79927 6.43357 9.99606 5.96849 11.3566C5.52925 12.7172 5.30963 14.1533 5.30963 15.6651C5.30963 17.8067 5.87806 19.52 7.01492 20.8049C8.17761 22.0647 9.76663 22.6946 11.782 22.6946C12.092 22.6946 12.4537 22.6694 12.8671 22.619C13.2805 22.5686 13.6939 22.4804 14.1074 22.3545C14.5466 22.2033 14.96 22.0017 15.3476 21.7498L14.0298 23.8284L14.8825 19.9735C14.9858 19.5452 15.0763 19.1042 15.1538 18.6507C15.2313 18.1972 15.2959 17.7815 15.3476 17.4035C15.4251 17.0256 15.4767 16.7233 15.5026 16.4965L12.9059 16.0052L13.4097 14.2289H22.285L22.0137 15.9296L20.0371 16.4587C19.9596 16.6603 19.8562 17.013 19.727 17.5169C19.6237 18.0208 19.5074 18.5877 19.3782 19.2176C19.2749 19.7719 19.1586 20.3388 19.0294 20.9183C18.9261 21.4726 18.8098 22.1655 18.6806 22.997C17.8796 23.4253 17.027 23.7906 16.1227 24.093C15.2184 24.3953 14.3141 24.6221 13.4097 24.7732C12.5054 24.9244 11.6657 25 10.8906 25Z" fill="white"></path><path d="M35.2498 11.5834C34.7589 11.5834 34.2679 11.8227 33.777 12.3014C33.312 12.755 32.8469 13.3849 32.3818 14.1911C31.9167 14.9722 31.4387 15.8792 30.9478 16.9122C30.3019 18.2728 29.7334 19.6585 29.2425 21.0695C28.7774 22.4804 28.4286 23.6772 28.1961 24.6599H23.8166C24.2042 23.4757 24.5917 22.2033 24.9793 20.8427C25.3669 19.4822 25.7286 18.1468 26.0645 16.8366C26.4004 15.5013 26.6588 14.3045 26.8396 13.2463C27.0463 12.1629 27.1497 11.344 27.1497 10.7897C26.6329 11.0921 26.1162 11.4826 25.5994 11.9613C25.1085 12.44 24.6047 13.0447 24.0879 13.7754L23.0027 12.377C23.6487 11.5456 24.3463 10.7897 25.0956 10.1094C25.8707 9.42916 26.6329 8.88745 27.3822 8.48433C28.1573 8.0812 28.8679 7.87963 29.5138 7.87963C30.0306 7.87963 30.4181 8.03081 30.6765 8.33315C30.9607 8.6103 31.1028 9.11421 31.1028 9.84488C31.1028 10.1976 31.0253 10.8275 30.8703 11.7345C30.7153 12.6164 30.4311 13.8006 30.0177 15.2871C29.6042 16.7737 28.9841 18.6129 28.1573 20.8049H28.0023C28.7516 18.8397 29.4492 17.0634 30.0952 15.4761C30.7669 13.8888 31.4258 12.5282 32.0717 11.3944C32.7435 10.2606 33.4282 9.39136 34.1258 8.78667C34.8493 8.18198 35.6373 7.87963 36.49 7.87963C37.1359 7.87963 37.6268 8.056 37.9627 8.40874C38.2986 8.73628 38.4666 9.2024 38.4666 9.80709C38.4666 10.2354 38.3632 10.6889 38.1565 11.1677C37.9756 11.6464 37.6914 12.0873 37.3039 12.4904C37.0197 12.2133 36.6838 11.9991 36.2962 11.8479C35.9345 11.6716 35.5857 11.5834 35.2498 11.5834Z" fill="white"></path><path d="M42.9437 24.9622C41.781 24.9622 40.7604 24.7229 39.8819 24.2441C39.0035 23.7654 38.3188 23.0851 37.8279 22.2033C37.3369 21.3215 37.0915 20.2758 37.0915 19.0665C37.0915 17.6303 37.3499 16.2446 37.8666 14.9092C38.3834 13.5486 39.0939 12.3518 39.9982 11.3188C40.9025 10.2606 41.936 9.42916 43.0987 8.82446C44.2873 8.19458 45.5275 7.87963 46.8194 7.87963C47.982 7.87963 49.0026 8.11899 49.8811 8.5977C50.7854 9.07642 51.483 9.7567 51.974 10.6385C52.4649 11.5204 52.7103 12.5786 52.7103 13.8132C52.7103 15.2493 52.452 16.6351 51.9352 17.9704C51.4185 19.3058 50.7079 20.5026 49.8036 21.5608C48.8993 22.619 47.8529 23.4505 46.6643 24.0552C45.5016 24.6599 44.2614 24.9622 42.9437 24.9622ZM43.9514 22.808C44.5715 22.808 45.1399 22.5812 45.6567 22.1277C46.1992 21.649 46.6643 21.0065 47.0519 20.2003C47.4395 19.394 47.7366 18.4618 47.9433 17.4035C48.15 16.3453 48.2533 15.2367 48.2533 14.0777C48.2533 12.818 48.0337 11.8101 47.5945 11.0543C47.1811 10.2984 46.6385 9.92047 45.9667 9.92047C45.3208 9.92047 44.7265 10.1598 44.1839 10.6385C43.6672 11.1173 43.215 11.7723 42.8274 12.6038C42.4399 13.4101 42.1427 14.3423 41.936 15.4005C41.7293 16.4335 41.626 17.5295 41.626 18.6885C41.626 19.9987 41.8327 21.0191 42.2461 21.7498C42.6853 22.4553 43.2538 22.808 43.9514 22.808Z" fill="white"></path><path d="M57.9239 24.811L57.4975 18.8775C57.3942 17.2146 57.2521 15.7154 57.0712 14.3801C56.8903 13.0195 56.7095 11.8605 56.5286 10.9031C55.676 11.5834 54.875 12.5408 54.1257 13.7754L52.9243 12.4904C53.5444 11.533 54.1903 10.7141 54.8621 10.0339C55.5339 9.35357 56.1927 8.82447 56.8387 8.44653C57.4846 8.0686 58.066 7.87963 58.5827 7.87963C59.2028 7.87963 59.6679 8.0434 59.9779 8.37094C60.288 8.67329 60.5076 9.215 60.6368 9.99606C60.766 10.7267 60.8952 11.7849 61.0244 13.1707C61.1536 14.5313 61.2698 16.106 61.3732 17.8949L61.6445 22.4678H60.5205L67.8843 8.18198H70.791L71.7599 22.5434L70.9848 22.619C72.1733 21.46 73.1293 20.301 73.8528 19.142C74.5762 17.9578 75.1059 16.7485 75.4418 15.5139C75.7777 14.2541 75.9456 12.9313 75.9456 11.5456C75.9456 10.8653 75.8939 10.2858 75.7906 9.80709C75.6872 9.32838 75.5451 8.88745 75.3643 8.48433C75.6485 8.30796 75.9973 8.16938 76.4107 8.0686C76.8499 7.94262 77.2375 7.87963 77.5734 7.87963C78.3743 7.87963 78.9815 8.10639 79.3949 8.55991C79.8342 9.01343 80.0538 9.7567 80.0538 10.7897C80.0538 11.8731 79.8083 13.0321 79.3174 14.2667C78.8265 15.4761 78.1547 16.7107 77.3021 17.9704C76.4753 19.2302 75.5193 20.4522 74.4341 21.6364C73.3748 22.7954 72.2637 23.8536 71.101 24.811H68.078L67.1866 12.3392H68.0005L61.4894 24.811H57.9239Z" fill="white"></path><path d="M82.559 24.6599V0H87.6667V10.2053H98.5964V0H103.74V24.6599H98.5964V14.8029H87.6667V24.6599H82.559Z" fill="white"></path><path d="M116.211 24.9037C113.449 24.9037 111.318 24.2187 109.818 22.8487C108.341 21.4555 107.603 19.3657 107.603 16.5792V6.30429H112.604V16.2309C112.604 17.0669 112.723 17.8099 112.961 18.4601C113.223 19.087 113.616 19.5862 114.14 19.9578C114.687 20.3293 115.39 20.5151 116.247 20.5151C117.176 20.5151 117.89 20.3177 118.39 19.9229C118.89 19.5282 119.235 19.0057 119.426 18.3556C119.616 17.6822 119.712 16.974 119.712 16.2309V6.30429H124.676V16.5792C124.676 19.4818 123.926 21.5948 122.426 22.9183C120.95 24.2419 118.878 24.9037 116.211 24.9037Z" fill="white"></path><path d="M138.569 24.9037C137.95 24.9037 137.295 24.8456 136.605 24.7295C135.938 24.6134 135.271 24.3928 134.605 24.0677C133.962 23.7194 133.354 23.2318 132.783 22.6049L132.747 24.6599H127.854V0H132.854V8.46377C133.569 7.62784 134.45 7.0125 135.497 6.61776C136.569 6.1998 137.676 5.99081 138.819 5.99081C140.677 5.99081 142.201 6.40878 143.391 7.2447C144.582 8.05741 145.463 9.17198 146.034 10.5884C146.63 12.0048 146.927 13.6303 146.927 15.4647C146.927 17.2526 146.63 18.8664 146.034 20.3061C145.439 21.7225 144.522 22.8487 143.284 23.6846C142.07 24.4973 140.498 24.9037 138.569 24.9037ZM137.498 20.5499C138.664 20.5499 139.569 20.2945 140.212 19.7836C140.855 19.2728 141.308 18.6226 141.57 17.8331C141.831 17.0436 141.962 16.2193 141.962 15.3602C141.962 14.501 141.82 13.6999 141.534 12.9569C141.248 12.1906 140.772 11.5869 140.105 11.1457C139.462 10.6813 138.593 10.4491 137.498 10.4491C136.498 10.4491 135.64 10.6929 134.926 11.1805C134.235 11.6449 133.712 12.2603 133.354 13.0265C132.997 13.7928 132.819 14.6171 132.819 15.4995C132.819 16.3819 132.973 17.2178 133.283 18.0073C133.616 18.7735 134.128 19.3889 134.819 19.8533C135.509 20.3177 136.402 20.5499 137.498 20.5499Z" fill="white"></path><path d="M149.857 24.6599C149.238 24.6599 148.726 24.4625 148.321 24.0677C147.916 23.673 147.714 23.1738 147.714 22.57C147.714 21.9663 147.916 21.4671 148.321 21.0723C148.726 20.6776 149.238 20.4802 149.857 20.4802C150.476 20.4802 150.988 20.6776 151.393 21.0723C151.798 21.4671 152 21.9663 152 22.57C152 23.1738 151.798 23.673 151.393 24.0677C150.988 24.4625 150.476 24.6599 149.857 24.6599Z" fill="white"></path></svg>