<svg xmlns="http://www.w3.org/2000/svg" width="672" height="623" viewBox="0 0 672 623" fill="none"><g opacity="0.24"><path opacity="0.4" d="M928.144 -16.7391C885.084 -219.32 685.953 -348.638 483.372 -305.578C280.791 -262.518 151.473 -63.3863 194.533 139.195C237.593 341.776 436.724 471.093 639.305 428.033C841.886 384.973 971.204 185.842 928.144 -16.7391Z" stroke="white" stroke-width="2" stroke-miterlimit="10"></path><path opacity="0.4" d="M881.061 117.809C849.942 294.293 681.047 412.555 504.563 381.436C328.078 350.317 209.817 181.422 240.936 4.93748C272.055 -171.547 440.949 -289.808 617.434 -258.689C793.918 -227.57 912.18 -58.6759 881.061 117.809Z" stroke="white" stroke-width="2" stroke-miterlimit="10"></path><path opacity="0.4" d="M835.327 108.772C861.988 -42.4307 761.028 -186.618 609.825 -213.279C458.622 -239.94 314.435 -138.979 287.774 12.2235C261.113 163.426 362.074 307.613 513.277 334.274C664.479 360.935 808.666 259.975 835.327 108.772Z" stroke="white" stroke-width="2" stroke-miterlimit="10"></path><path opacity="0.4" d="M784.949 100.604C806.671 -22.5883 724.414 -140.065 601.222 -161.787C478.03 -183.509 360.553 -101.251 338.831 21.9411C317.109 145.133 399.367 262.609 522.559 284.331C645.751 306.053 763.227 223.796 784.949 100.604Z" stroke="white" stroke-width="2" stroke-miterlimit="10"></path><path opacity="0.4" d="M738.144 91.8855C755.311 -5.47167 690.304 -98.3115 592.947 -115.478C495.59 -132.645 402.75 -67.6377 385.583 29.7194C368.416 127.077 433.424 219.916 530.781 237.083C628.138 254.25 720.978 189.243 738.144 91.8855Z" stroke="white" stroke-width="2" stroke-miterlimit="10"></path><path opacity="0.4" d="M347.571 394.186C356.517 341.367 320.952 291.296 268.133 282.349C215.313 273.402 165.242 308.968 156.295 361.787C147.348 414.606 182.914 464.678 235.733 473.624C288.553 482.571 338.624 447.005 347.571 394.186Z" fill="white"></path></g></svg>